<svg id="Layer_1" data-name="Layer 1" xmlns="http://www.w3.org/2000/svg" viewBox="0 0 307.38 67.56"><defs><style>.cls-1{fill:#fcffed;}.cls-2{fill:#e5ff7d;}</style></defs><path class="cls-1" d="M221.07,133h10.31v19.24c1.54-2.39,4.63-4.82,10.67-4.82,10.14,0,15.2,8.38,15.2,18.84,0,10.68-5.48,20.16-16.2,20.16-5.54,0-8-1.69-9.79-4.4a18.37,18.37,0,0,1-.4,3.54H221c.08-4,.08-8.15.08-12.19Zm25.71,33.45c0-6.21-2.31-10.76-7.88-10.76-5.89,0-8,3.84-8,11.43,0,6.28,1.85,11.1,7.87,11.1C244,178.22,246.78,173.5,246.78,166.45Z" transform="translate(-220.99 -133)"/><path class="cls-1" d="M271.21,148.29c3.85,12.86,7.2,24.33,7.79,27.78h.08c.8-3.76,3-12.11,7.43-27.78h10.28l-12.52,38.34c-3.57,10.72-6.54,13.92-15.49,13.92a48.27,48.27,0,0,1-4.84-.28V192c.7.08,1.84.15,2.67.15,3.79,0,5.7-1.31,7.1-5.43l-13.56-38.41Z" transform="translate(-220.99 -133)"/><path class="cls-1" d="M299.81,148.29h5.74v-10.1h10.32v10.1h7.3V156h-7.3v18.4c0,2.83.87,3.93,3.94,3.93a18.46,18.46,0,0,0,2.35-.12v7.1a23.59,23.59,0,0,1-6.93.71c-7.28,0-9.68-3.89-9.68-10.41V156h-5.74Z" transform="translate(-220.99 -133)"/><path class="cls-1" d="M337.06,169.13c0,4.66,2.34,9.22,7.48,9.22,4.29,0,5.52-1.73,6.5-4h10.33c-1.32,4.56-5.39,12-17.1,12-12.28,0-17.61-9.18-17.61-19,0-11.69,6-20,18-20,12.8,0,17.15,9.26,17.15,18.57a22.12,22.12,0,0,1-.14,3.14Zm14.39-6.34c-.07-4.34-1.8-8-6.83-8s-6.94,3.41-7.35,8Z" transform="translate(-220.99 -133)"/><g transform="translate(501, 166) scale(0.72) translate(-501, -166)"><path class="cls-2" d="M522.18,138.17c-7.65,1.15-13.06,2-15.14,5.65-.43.75-2,3.92.71,10a18.13,18.13,0,0,0,8.33-3.38,18.42,18.42,0,0,0,5.29-6.17,18.34,18.34,0,0,1-5.8,8.11,12,12,0,0,1-4.26,2.5,10.58,10.58,0,0,1-4.23.27h-.16a7.48,7.48,0,0,0-2.37.23,7.64,7.64,0,0,0-1.46.57,12.68,12.68,0,0,0-4.16,2.66,7.11,7.11,0,0,1,.47.65v0A18.65,18.65,0,0,1,502,169.36c0,8.13-3.26,14.25-10,14.25-6.87,0-9.41-6.66-9.41-14.25,0-8.94,3.31-14.24,9.52-14.24,2.41,0,3.38-.27,4.93,1.29a12.28,12.28,0,0,1,2.87-2.29,12.5,12.5,0,0,1,4.66-1.57c-2.93-3.29-6.24-4.58-12.48-4.58-14,0-18.88,10.07-18.88,21.39s4.41,21.4,18.66,21.4c14.43,0,18.68-10.3,18.68-21.66a27.84,27.84,0,0,0-2.36-12c1.13,0,3-.05,5-.05h0c3,.35,6.53.13,9-2.12,2.11-1.9,3-4.76,4.47-10a54.19,54.19,0,0,0,1.62-7.39A62,62,0,0,0,522.18,138.17ZM501.32,157.1a10.32,10.32,0,0,1,.9-.69A10.32,10.32,0,0,0,501.32,157.1Z" transform="translate(-220.99 -133)"/></g><path class="cls-2" d="M367.64,178.67l18.45-21.38H368.54v-8.14h29.2v8l-18.09,21.11H399l-1.24,8.14H367.64Z" transform="translate(-220.99 -133)"/><path class="cls-2" d="M412.75,170c0,4.66,2.34,9.22,7.48,9.22,4.3,0,5.52-1.72,6.5-4h10.33c-1.32,4.56-5.39,12.06-17.1,12.06-12.28,0-17.6-9.18-17.6-19,0-11.69,6-20,18-20,12.8,0,17.15,9.26,17.15,18.56a23.8,23.8,0,0,1-.13,3.14Zm14.4-6.34c-.08-4.34-1.81-8-6.84-8s-6.93,3.41-7.34,8Z" transform="translate(-220.99 -133)"/><path class="cls-2" d="M444.72,159.26c0-3.7,0-7-.08-10.11h10.13c.13.84.27,4.53.27,6.54,1.64-4.26,5.62-7.37,12-7.4v9.84c-7.49-.19-12,1.82-12,12v16.25H444.72Z" transform="translate(-220.99 -133)"/></svg>